<!DOCTYPE svg PUBLIC "-//W3C//DTD SVG 1.1//EN" "http://www.w3.org/Graphics/SVG/1.1/DTD/svg11.dtd">

<!-- Uploaded to: SVG Repo, www.svgrepo.com, Transformed by: SVG Repo Mixer Tools -->
<svg height="800px" width="800px" version="1.1" id="Layer_1" xmlns="http://www.w3.org/2000/svg" xmlns:xlink="http://www.w3.org/1999/xlink" viewBox="0 0 512 512" xml:space="preserve" fill="#FFD54F" stroke="#FFD54F">

<g id="SVGRepo_bgCarrier" stroke-width="0"/>

<g id="SVGRepo_tracerCarrier" stroke-linecap="round" stroke-linejoin="round"/>

<g id="SVGRepo_iconCarrier"> <path style="fill:#7ab3e1;" d="M512,256.006C512,397.402,397.394,512.004,256.004,512C114.606,512.004,0,397.402,0,256.006 C-0.007,114.61,114.606,0,256.004,0C397.394,0,512,114.614,512,256.006z"/> <path style="fill:#7ab3e1;" d="M509.209,293.865C435.833,220.486,309.661,94.317,309.483,94.143 c-13.576-13.962-32.519-22.676-53.484-22.676c-41.169,0-74.667,33.494-74.667,74.667c0,21.756,9.355,41.363,24.251,55.021 c0.274,0.266,42.71,42.729,42.945,42.948c0.001,0.002,0.003,0.003,0.005,0.005v100.708c-0.002-0.001-0.003-0.002-0.005-0.003 c-0.348-0.348-0.695-0.695-1.043-1.042c-0.057-0.062-0.118-0.116-0.176-0.176c-4.13-4.129-52.337-52.302-52.629-52.522 c-1.361-1.819-3.43-3.073-5.879-3.073h-67.893c-3.07,0-5.826,1.874-6.949,4.732l-44.107,112c-0.905,2.297-0.612,4.893,0.78,6.934 c0.245,0.362,46.125,46.192,75.714,75.716c33.239,15.778,70.414,24.618,109.66,24.617 C384.53,512.003,490.913,417.302,509.209,293.865z"/> <path style="fill:#7ab3e1F4F6F9;" d="M441.966,404.302l-52.339-112c-1.232-2.625-3.865-4.302-6.767-4.302h-67.126 c-4.127,0-7.467,3.34-7.467,7.467s3.34,7.467,7.467,7.467h62.373L423.468,400h-55.546c0.446-10.211-2.415-18.738-8.562-25.316 c-16.157-17.292-51.318-18.078-95.892-18.774V220.421c37.676-3.759,67.2-35.636,67.2-74.288c0-41.172-33.498-74.667-74.667-74.667 s-74.667,33.494-74.667,74.667c0,38.652,29.524,70.529,67.2,74.288v135.202c-12.5-0.235-25.188-0.553-38.164-1.386 c-21.795-1.393-35.642-7.299-41.139-17.551c-6.224-11.61-0.774-26.826,2.365-33.754H188.8c4.127,0,7.467-3.34,7.467-7.467 S192.927,288,188.8,288h-67.893c-3.07,0-5.826,1.874-6.949,4.733l-44.108,112c-0.905,2.297-0.612,4.893,0.78,6.934 c1.387,2.042,3.698,3.266,6.171,3.266h358.4c2.553,0,4.929-1.306,6.3-3.456S443.045,406.621,441.966,404.302z M196.267,146.133 c0-32.937,26.797-59.733,59.733-59.733s59.733,26.797,59.733,59.733S288.937,205.867,256,205.867 C223.063,205.867,196.267,179.07,196.267,146.133z M125.989,302.933h29.517c-3.74,10.495-7.013,26.603,0.525,40.738 c8.086,15.152,26.046,23.719,53.39,25.47c17.836,1.145,35.146,1.407,51.888,1.669c38.609,0.598,75.083,1.167,87.142,14.066 c3.449,3.69,4.9,8.371,4.564,14.736c-0.007,0.135,0.057,0.253,0.058,0.386H87.766L125.989,302.933z"/> </g>

</svg>